<svg id="visual" viewBox="0 0 960 540" width="960" height="540" xmlns="http://www.w3.org/2000/svg" xmlns:xlink="http://www.w3.org/1999/xlink" version="1.1"><g transform="translate(478.5621481764771 254.28075933288892)"><path d="M155.3 -179.2C194.8 -151.8 216.1 -96.8 216.4 -45.5C216.7 5.9 196 53.6 171.2 101.1C146.4 148.6 117.5 196 73.9 218.8C30.2 241.5 -28.2 239.6 -81.8 221.5C-135.3 203.3 -184.2 168.9 -203.2 123.4C-222.3 77.9 -211.6 21.2 -197.7 -30.9C-183.9 -83.1 -166.8 -130.8 -133.3 -159.2C-99.8 -187.7 -49.9 -196.8 4 -201.6C57.9 -206.3 115.7 -206.6 155.3 -179.2" fill="#59599e"></path></g></svg>