<svg id="visual" viewBox="0 0 960 540" width="960" height="540" xmlns="http://www.w3.org/2000/svg" xmlns:xlink="http://www.w3.org/1999/xlink" version="1.1"><path d="M0 227L26.7 219C53.3 211 106.7 195 160 177.5C213.3 160 266.7 141 320 153.2C373.3 165.3 426.7 208.7 480 233.2C533.3 257.7 586.7 263.3 640 257C693.3 250.7 746.7 232.3 800 203.7C853.3 175 906.7 136 933.3 116.5L960 97L960 0L933.3 0C906.7 0 853.3 0 800 0C746.7 0 693.3 0 640 0C586.7 0 533.3 0 480 0C426.7 0 373.3 0 320 0C266.7 0 213.3 0 160 0C106.7 0 53.3 0 26.7 0L0 0Z" fill="#59599e" stroke-linecap="round" stroke-linejoin="miter"></path></svg>